<svg viewBox="0 0 16.83 16.83" xmlns="http://www.w3.org/2000/svg"><path d="m16.83 6.18c-.06-.23-3.45.48-7.73 1.59a19 19 0 0 0 1.9-3.87 21 21 0 0 0 -2.36 3.6c-1.16-4.26-2.23-7.56-2.46-7.5s.48 3.46 1.59 7.74a19.38 19.38 0 0 0 -3.87-1.94 20.29 20.29 0 0 0 3.6 2.39c-4.26 1.16-7.56 2.24-7.5 2.46s3.46-.47 7.74-1.59a19.38 19.38 0 0 0 -1.94 3.87 19.39 19.39 0 0 0 2.39-3.6c1.16 4.27 2.24 7.56 2.46 7.5s-.47-3.45-1.59-7.73a19 19 0 0 0 3.87 1.9 20 20 0 0 0 -3.6-2.39c4.27-1.13 7.56-2.2 7.5-2.43z" fill="#fff"/></svg>